<svg xmlns="http://www.w3.org/2000/svg" viewBox="0 0 256 256" style="enable-background:new 0 0 256 256" xml:space="preserve"><style>.st3{fill:#f0c020}.st6{fill:#c5e5ff}</style><g id="Layer_1"><path d="M250.13 84.48v161.514H5.87V20.62h34.297v32.051a5 5 0 0 0 5 5h82.961a5 5 0 0 0 5-5V20.62h53.121l63.881 63.86z" style="fill:#72c1e8"/><path class="st6" d="M18.75 235.23a2.5 2.5 0 0 1-2.5-2.5v-4.413a2.5 2.5 0 1 1 5 0v4.413a2.5 2.5 0 0 1-2.5 2.5zm0-14.413a2.5 2.5 0 0 1-2.5-2.5v-179a2.5 2.5 0 1 1 5 0v179a2.5 2.5 0 0 1-2.5 2.5z"/><path class="st3" d="M45.167 10.005a5 5 0 0 0-5 5V52.671a5 5 0 0 0 5 5h82.961a5 5 0 0 0 5-5V15.005a5 5 0 0 0-5-5H45.167zM47.257 204.505h161.486v41.5H47.257z"/><path class="st6" d="M235.604 227.04a2.5 2.5 0 0 1-2.5-2.5V93.486L191.43 51.824a2.498 2.498 0 0 1 0-3.535 2.498 2.498 0 0 1 3.535 0l42.406 42.394c.469.469.732 1.104.732 1.768v132.09a2.499 2.499 0 0 1-2.499 2.499zM184.357 44.755l-4.243-4.242a2.498 2.498 0 0 1 0-3.535 2.498 2.498 0 0 1 3.535 0l4.243 4.242a2.499 2.499 0 1 1-3.535 3.535z"/><path style="fill:#afafaf" d="M107.272 20.62h12.608v26.436h-12.608z"/><path d="M166.294 135.002c4.49-19.989-10.731-38.803-31.024-38.803-15.376 0-28.204 10.911-31.163 25.413C91.05 116.097 76.5 125.7 76.5 139.932c0 10.979 8.9 19.879 19.879 19.879h70.697c6.862 0 12.424-5.563 12.424-12.424 0-7.049-5.902-12.841-13.206-12.385z" style="fill:#efefef"/><path d="M155.501 133.447a2.499 2.499 0 0 1-2.114-2.833c.07-.485.121-.978.152-1.464.088-1.377 1.242-2.412 2.654-2.336a2.5 2.5 0 0 1 2.336 2.654c-.04.62-.105 1.247-.195 1.864a2.5 2.5 0 0 1-2.833 2.115zm-4.291-14.435c-3.251-5.744-9.359-9.313-15.94-9.313a2.5 2.5 0 1 1 0-5c8.38 0 16.155 4.541 20.292 11.85a2.5 2.5 0 1 1-4.352 2.463z" style="fill:#fff"/><path d="M73.3 222.755a2.5 2.5 0 1 0 0 5h109.4a2.5 2.5 0 1 0 0-5H73.3z"/><path d="M188.02 18.854a2.503 2.503 0 0 0-1.77-.729h-50.622v-3.12c0-4.136-3.364-7.5-7.5-7.5H45.167c-4.136 0-7.5 3.364-7.5 7.5v3.12H5.87a2.494 2.494 0 0 0-2.5 2.5v54.59a2.5 2.5 0 0 0 5 0V23.114h29.297v29.558c0 4.136 3.364 7.5 7.5 7.5h82.961c4.136 0 7.5-3.364 7.5-7.5V23.114h49.582l62.42 62.4v157.98h-36.39v-8.98a2.5 2.5 0 0 0-5 0v8.98H49.76v-36.49h156.48v7.51a2.5 2.5 0 0 0 5 0v-10.01c0-1.376-1.103-2.5-2.5-2.5H47.26a2.496 2.496 0 0 0-2.5 2.5v38.99H8.37V95.215a2.5 2.5 0 0 0-5 0v150.78c0 1.37 1.099 2.5 2.5 2.5h244.26c1.395 0 2.5-1.14 2.5-2.5V84.484c0-.67-.26-1.3-.73-1.77l-63.88-63.86zm-57.392 33.818c0 1.379-1.121 2.5-2.5 2.5H45.167a2.502 2.502 0 0 1-2.5-2.5V15.005c0-1.379 1.121-2.5 2.5-2.5h82.961c1.379 0 2.5 1.121 2.5 2.5v37.667z"/><circle cx="5.87" cy="85.215" r="2.5"/><circle cx="208.74" cy="224.515" r="2.5"/><path d="M119.88 18.12h-12.607a2.5 2.5 0 0 0-2.5 2.5v26.437a2.5 2.5 0 0 0 2.5 2.5h12.607a2.5 2.5 0 0 0 2.5-2.5V20.62a2.5 2.5 0 0 0-2.5-2.5zm-2.5 26.437h-7.607V23.12h7.607v21.437zM135.27 93.699c-15.279 0-28.7 10.212-32.929 24.655C88.158 114.427 74 125.132 74 139.933c0 12.339 10.039 22.378 22.379 22.378h70.697c8.229 0 14.924-6.694 14.924-14.924 0-7.296-5.356-13.7-12.739-14.758 2.805-20.504-13.138-38.93-33.991-38.93zM177 147.387c0 5.472-4.452 9.924-9.924 9.924H96.379c-9.583 0-17.379-7.796-17.379-17.378 0-12.435 12.727-20.833 24.134-16.019a2.5 2.5 0 0 0 3.422-1.803c2.77-13.565 14.845-23.412 28.714-23.412 18.718 0 32.719 17.353 28.585 35.755-.368 1.644.961 3.152 2.595 3.043 5.905-.378 10.55 4.334 10.55 9.89z"/></g></svg>
